HIERARCHY
ROOT Hips
{
	OFFSET 0.000000 0.000000 0.000000 
	CHANNELS 6 Xposition Yposition Zposition Zrotation Yrotation Xrotation
	JOINT LeftUpLeg
	{
		OFFSET 1.363060 -1.794630 0.839290 
		CHANNELS 3 Zrotation Yrotation Xrotation
		JOINT LeftLeg
		{
			OFFSET 2.448110 -6.726130 0.000000 
			CHANNELS 3 Zrotation Yrotation Xrotation
			JOINT LeftFoot
			{
				OFFSET 2.562200 -7.039590 0.000000 
				CHANNELS 3 Zrotation Yrotation Xrotation
				JOINT LeftToeBase
				{
					OFFSET 0.157640 -0.433110 2.322550 
					CHANNELS 3 Zrotation Yrotation Xrotation
					End Site
					{
						OFFSET 0.000000 0.000000 0.000000 
					}
				}
			}
		}
	}
	JOINT RightUpLeg
	{
		OFFSET -1.305520 -1.794630 0.839290 
		CHANNELS 3 Zrotation Yrotation Xrotation
		JOINT RightLeg
		{
			OFFSET -2.542530 -6.985550 0.000000 
			CHANNELS 3 Zrotation Yrotation Xrotation
			JOINT RightFoot
			{
				OFFSET -2.568260 -7.056230 0.000000 
				CHANNELS 3 Zrotation Yrotation Xrotation
				JOINT RightToeBase
				{
					OFFSET -0.164730 -0.452590 2.363150 
					CHANNELS 3 Zrotation Yrotation Xrotation
					End Site
					{
						OFFSET 0.000000 0.000000 0.000000 
					}
				}
			}
		}
	}
	JOINT Spine
	{
		OFFSET 0.028270 2.035590 -0.193380 
		CHANNELS 3 Zrotation Yrotation Xrotation
		JOINT Spine1
		{
			OFFSET 0.056720 2.048850 -0.042750 
			CHANNELS 3 Zrotation Yrotation Xrotation
			JOINT Neck1
			{
				OFFSET -0.054170 1.746240 0.172020 
				CHANNELS 3 Zrotation Yrotation Xrotation
				JOINT Head
				{
					OFFSET 0.104070 1.761360 -0.123970 
					CHANNELS 3 Zrotation Yrotation Xrotation
					End Site
					{
						OFFSET 0.000000 0.000000 0.000000 
					}
				}
			}
			JOINT LeftArm
			{
				OFFSET 3.362410 1.200890 -0.311210 
				CHANNELS 3 Zrotation Yrotation Xrotation
				JOINT LeftForeArm
				{
					OFFSET 4.983000 -0.000000 -0.000000 
					CHANNELS 3 Zrotation Yrotation Xrotation
					JOINT LeftHand
					{
						OFFSET 3.483560 -0.000000 -0.000000 
						CHANNELS 3 Zrotation Yrotation Xrotation
						JOINT LeftHandIndex1
						{
							OFFSET 0.715260 -0.000000 -0.000000 
							CHANNELS 3 Zrotation Yrotation Xrotation
							End Site
							{
								OFFSET 0.000000 0.000000 0.000000 
							}
						}
					}
				}
			}
			JOINT RightArm
			{
				OFFSET -3.136600 1.374050 -0.404650 
				CHANNELS 3 Zrotation Yrotation Xrotation
				JOINT RightForeArm
				{
					OFFSET -5.241900 -0.000000 -0.000000 
					CHANNELS 3 Zrotation Yrotation Xrotation
					JOINT RightHand
					{
						OFFSET -3.444170 -0.000000 -0.000000 
						CHANNELS 3 Zrotation Yrotation Xrotation
						JOINT RightHandIndex1
						{
							OFFSET -0.622530 -0.000000 -0.000000 
							CHANNELS 3 Zrotation Yrotation Xrotation
							End Site
							{
								OFFSET 0.000000 0.000000 0.000000 
							}
						}
					}
				}
			}
		}
	}
}
MOTION
Frames: 16
Frame Time: 0.041667
5.471146 17.617365 -1.151536 132.341074 -86.071673 -135.782024 -22.182862 -2.732216 8.650093 0.329204 6.504854 15.807066 -1.828048 17.426041 -21.424068 0.077600 1.797000 4.945000 21.357814 -8.361237 15.327483 -0.717010 -3.385584 6.854969 -0.533012 -14.964863 -21.308384 -0.023200 -0.982800 2.701600 -0.062782 -0.805254 -0.021511 3.926556 -0.751305 8.267970 7.052151 -13.604341 15.022654 2.456800 -6.755500 14.560000 -81.014412 -2.532015 24.252057 7.143185 -20.159527 -1.813653 -0.092377 0.061098 -1.868165 -7.125000 0.000000 0.000000 68.504500 0.171622 18.797848 -10.584559 22.678463 -3.159323 1.209216 -0.254281 -9.470006 7.125000 0.000000 0.000000 
5.478097 17.622967 -1.147283 130.022554 -85.986098 -133.490819 -22.514908 -3.105841 8.733122 0.323330 6.511568 15.798815 -1.806706 17.443502 -21.728000 0.100800 2.047600 5.637200 20.947083 -8.533162 15.540155 -0.702255 -3.249750 6.528497 -0.514902 -15.059773 -21.151883 -0.016800 -0.838100 2.303400 -0.085006 -0.868812 -0.023726 3.922324 -0.781012 8.263309 6.852664 -13.549395 15.148396 2.333100 -6.733000 14.636700 -81.050018 -2.586633 24.163186 7.162089 -20.182283 -1.820352 -0.092413 0.061879 -1.960172 -7.125000 0.000000 0.000000 68.576049 0.212596 18.403949 -10.685914 22.795339 -3.221288 1.220733 -0.254197 -8.903481 7.125000 0.000000 0.000000 
5.485152 17.631474 -1.141162 130.569764 -85.728216 -133.955709 -22.742074 -3.136177 8.710357 0.304386 6.471826 15.643255 -1.861475 17.723791 -21.777842 0.095600 1.994000 5.489100 20.758981 -8.239920 15.384150 -0.721860 -3.285185 6.672916 -0.515971 -15.132853 -21.132067 -0.011000 -0.678000 1.863200 -0.125225 -0.794152 -0.006699 3.848118 -0.736962 8.212701 7.292738 -13.293623 14.673593 2.673800 -6.648200 14.201500 -81.017455 -2.628437 24.198036 7.169442 -20.191232 -1.822678 -0.092678 0.062639 -2.012700 -7.125000 0.000000 0.000000 68.701475 0.226688 18.004349 -10.798977 22.935483 -3.279217 1.225691 -0.262323 -8.357382 7.125000 0.000000 0.000000 
5.502684 17.641952 -1.128609 135.690214 -85.126365 -138.818479 -22.933856 -3.231809 8.407573 0.311620 6.550216 15.822243 -1.902747 18.193529 -22.464380 0.106400 2.103500 5.791700 20.725068 -7.632879 15.749694 -0.699825 -2.797100 5.393689 -0.411495 -15.714087 -20.341265 -0.005900 -0.496900 1.365300 -0.192630 -0.421478 -0.022990 3.624603 -0.546417 8.158237 7.404803 -13.368167 14.568601 2.728800 -6.671300 14.155000 -80.890511 -2.708957 24.463447 7.215379 -20.240164 -1.832235 -0.093354 0.063848 -2.069567 -7.125000 0.000000 0.000000 68.957750 0.287731 17.346279 -10.853149 22.985677 -3.301494 1.221357 -0.292554 -7.814687 7.125000 0.000000 0.000000 
5.500402 17.624835 -1.135768 134.622266 -85.194533 -138.047079 -22.948736 -3.086334 8.687919 0.322479 6.570855 15.914288 -1.848452 17.983511 -22.571468 0.111800 2.155900 5.936700 20.474556 -8.213583 16.811368 -0.633008 -2.319347 4.104491 -0.337653 -15.940060 -19.874846 -0.012000 -0.708700 1.947600 -0.207796 -0.424833 0.024912 3.606513 -0.562370 8.297050 6.956526 -13.684389 15.079293 2.369300 -6.773900 14.619700 -80.806187 -2.699983 24.725770 7.322552 -20.387212 -1.859972 -0.094900 0.061686 -2.179802 -7.125000 0.000000 0.000000 69.238674 0.346041 16.420264 -10.865238 22.963213 -3.304919 1.215364 -0.316879 -7.032372 7.125000 0.000000 0.000000 
5.663277 17.683760 -1.184941 154.926709 -85.384698 -157.478434 -20.308949 -3.758758 7.219775 0.364583 6.566506 16.107347 -1.975394 18.628085 -22.683445 0.150100 2.496800 6.880800 23.795833 -7.343241 16.154465 -0.624886 -1.626129 1.834945 -0.172790 -16.535685 -18.602760 -0.079800 -1.821700 5.013100 0.122471 -0.191145 -0.348927 3.844164 -0.348244 6.629547 7.185523 -13.499461 14.645725 2.527000 -6.710600 14.350400 -80.864950 -2.704652 24.864581 7.432982 -20.507285 -1.890015 -0.089841 0.070092 -2.494010 -7.125000 0.000000 0.000000 69.441879 0.419474 15.620535 -10.892173 22.905640 -3.320874 1.231693 -0.316758 -6.309216 7.125000 0.000000 0.000000 
5.641387 17.683138 -1.173945 149.201814 -85.187788 -151.927263 -21.197630 -3.920226 7.400103 0.371837 6.652218 16.296789 -1.988174 18.796359 -22.957285 0.135800 2.375400 6.544400 22.511677 -7.919996 17.522136 -0.596413 -0.870132 -0.095601 -0.054824 -17.035981 -17.670569 -0.049500 -1.436100 3.949500 0.028370 -0.188448 -0.289045 3.874644 -0.376730 6.820969 7.348866 -13.424262 14.473527 2.657700 -6.690200 14.196800 -80.878456 -2.699488 25.095033 7.451511 -20.544026 -1.892268 -0.093601 0.067007 -2.929555 -7.125000 0.000000 0.000000 69.366454 0.441867 15.707815 -10.763847 22.773440 -3.284349 1.232600 -0.304543 -6.379889 7.125000 0.000000 0.000000 
5.665248 17.691541 -1.180377 151.064277 -85.224662 -153.702946 -20.898397 -4.001528 7.101980 0.390036 6.712484 16.475609 -2.010455 18.856535 -22.859894 0.122600 2.257100 6.216800 22.858588 -7.809002 17.309249 -0.602907 -0.886460 -0.090662 -0.057331 -17.005351 -17.655677 -0.063100 -1.621100 4.459700 0.064519 -0.180810 -0.327619 3.907730 -0.361309 6.624379 7.361726 -13.397048 14.433025 2.660600 -6.675500 14.178700 -80.864122 -2.758185 25.257119 7.436360 -20.520052 -1.886012 -0.096244 0.069367 -3.134128 -7.125000 0.000000 0.000000 69.376817 0.496673 15.665328 -10.751532 22.750593 -3.287552 1.236105 -0.307315 -6.299241 7.125000 0.000000 0.000000 
5.677593 17.691333 -1.179754 151.076286 -85.289601 -153.688571 -20.828288 -3.921935 7.050401 0.380840 6.669792 16.356700 -2.022164 18.824338 -22.646620 0.121500 2.247300 6.189500 22.898945 -7.828794 17.222725 -0.604998 -0.891002 -0.091486 -0.059482 -16.975018 -17.610829 -0.067900 -1.680800 4.624200 0.065602 -0.214470 -0.342495 3.858204 -0.372384 6.559286 7.262205 -13.335823 14.491660 2.591800 -6.642900 14.209000 -80.876488 -2.795832 25.263701 7.417570 -20.490684 -1.880590 -0.097581 0.071287 -3.140524 -7.125000 0.000000 0.000000 69.415095 0.565176 15.536147 -10.684534 22.669717 -3.274784 1.239732 -0.307332 -6.113213 7.125000 0.000000 0.000000 
5.682780 17.688429 -1.178094 149.903434 -85.307398 -152.466427 -20.956210 -3.971992 7.102722 0.362353 6.603913 16.162421 -2.014691 18.794786 -22.652133 0.143700 2.443200 6.732300 22.757608 -7.857416 17.159677 -0.605313 -0.887035 -0.098620 -0.053666 -17.066880 -17.636585 -0.053600 -1.493900 4.108900 0.047000 -0.247551 -0.335846 3.827565 -0.392524 6.610371 7.263284 -13.288188 14.511736 2.588600 -6.615400 14.218000 -80.867752 -2.829367 25.324609 7.398748 -20.464323 -1.875470 -0.095285 0.073611 -3.221508 -7.125000 0.000000 0.000000 69.436961 0.666972 15.431011 -10.596665 22.567791 -3.253403 1.241301 -0.307709 -5.958163 7.125000 0.000000 0.000000 
5.687241 17.688740 -1.179132 149.102382 -85.291624 -151.611174 -21.046712 -3.992996 7.116998 0.347430 6.552716 16.008000 -2.016035 18.816145 -22.685852 0.156200 2.546500 7.018600 22.659530 -7.848704 17.095347 -0.606969 -0.883239 -0.105938 -0.053890 -17.125285 -17.751704 -0.047600 -1.408300 3.873000 0.030163 -0.261865 -0.321542 3.814017 -0.404162 6.666854 7.381860 -13.277796 14.440927 2.657800 -6.603600 14.180500 -80.823237 -2.882614 25.354445 7.380127 -20.435052 -1.869777 -0.091456 0.074378 -3.242604 -7.125000 0.000000 0.000000 69.458974 0.703750 15.516257 -10.660616 22.657297 -3.291409 1.248528 -0.305092 -6.029860 7.125000 0.000000 0.000000 
5.576133 17.648384 -1.139814 135.955506 -84.964825 -139.048500 -22.989218 -3.520541 8.052927 0.320589 6.592213 15.945487 -1.936379 18.467970 -22.748441 0.118900 2.223300 6.123300 20.138753 -8.717752 18.374519 -0.564870 -0.762897 -0.144118 -0.055888 -17.149036 -17.832637 -0.006200 -0.509900 1.401100 -0.216665 -0.388051 -0.050493 3.555703 -0.522116 7.830847 7.333462 -13.266589 14.526999 2.645400 -6.599300 14.151000 -80.822106 -2.813962 25.313482 7.385120 -20.465269 -1.870255 -0.094816 0.063581 -3.154208 -7.125000 0.000000 0.000000 69.428215 0.630204 15.659012 -10.710615 22.786407 -3.328408 1.246092 -0.299394 -6.141021 7.125000 0.000000 0.000000 
5.664625 17.676602 -1.172492 142.615961 -85.458953 -145.177341 -21.622857 -3.800392 7.249226 0.324479 6.511753 15.813991 -2.000990 18.567332 -22.243218 0.131100 2.334100 6.430000 22.304063 -7.517498 15.496115 -0.657642 -2.091768 3.205382 -0.274486 -16.303558 -19.449189 -0.029900 -1.115700 3.067300 -0.028293 -0.462283 -0.243199 3.815133 -0.523628 7.049528 7.226006 -13.220170 14.495562 2.555800 -6.573500 14.180700 -80.904279 -2.833688 25.333910 7.441499 -20.533768 -1.888666 -0.090564 0.070889 -3.092967 -7.125000 0.000000 0.000000 69.380956 0.734872 15.746494 -10.736866 22.770511 -3.330442 1.253105 -0.295958 -6.230660 7.125000 0.000000 0.000000 
5.744818 17.698699 -1.195315 152.305523 -85.483606 -154.287198 -20.386330 -4.119473 6.532406 0.319505 6.443258 15.664742 -2.071235 18.871384 -22.179586 0.158500 2.564900 7.069700 24.220265 -6.381350 13.650782 -0.730585 -2.714313 4.697391 -0.347838 -16.026351 -19.977536 -0.049500 -1.435900 3.949000 0.126663 -0.355373 -0.397455 3.931540 -0.425248 6.446806 7.212605 -13.187586 14.424423 2.527300 -6.549700 14.196900 -80.963918 -2.857075 25.457832 7.535755 -20.651116 -1.917391 -0.086783 0.079004 -2.975744 -7.125000 0.000000 0.000000 69.328670 0.858086 15.850042 -10.840850 22.864917 -3.371022 1.268022 -0.277835 -6.253067 7.125000 0.000000 0.000000 
5.597608 17.658551 -1.138050 137.699399 -85.268746 -140.066659 -22.583558 -3.842739 7.568735 0.294961 6.486791 15.634085 -1.970763 18.551832 -22.556110 0.122700 2.257800 6.218600 21.307244 -7.303280 14.850198 -0.710666 -2.613637 4.757626 -0.360510 -16.089608 -19.971392 -0.000600 -0.155700 0.427800 -0.162293 -0.512775 -0.063532 3.427174 -0.577247 8.125863 7.209751 -13.214123 14.517677 2.547100 -6.556400 14.173000 -80.941089 -2.793131 25.630416 7.595476 -20.763933 -1.932263 -0.094002 0.066284 -2.871439 -7.125000 0.000000 0.000000 69.292240 0.901208 15.856931 -10.972390 23.094899 -3.420005 1.252699 -0.295532 -5.896778 7.125000 0.000000 0.000000 
5.593769 17.656580 -1.135560 134.115884 -85.215045 -136.506115 -22.920668 -3.692387 7.518833 0.282107 6.475455 15.539001 -1.972292 18.438987 -22.258560 0.109900 2.137900 5.886900 20.828054 -7.365763 14.583205 -0.732422 -2.815541 5.362790 -0.401558 -15.957267 -20.232711 -0.000000 -0.044400 0.121900 -0.216066 -0.584452 -0.026340 3.415717 -0.620983 8.271506 7.265069 -13.253220 14.510435 2.570900 -6.563900 14.199000 -80.905723 -2.885878 25.707377 7.558161 -20.710413 -1.919515 -0.095523 0.065859 -2.923893 -7.125000 0.000000 0.000000 69.310030 1.020319 15.820696 -10.685102 22.749691 -3.291887 1.243551 -0.282544 -6.230163 7.125000 0.000000 0.000000 
